<svg width="197" height="61" viewBox="0 0 197 61" fill="none" xmlns="http://www.w3.org/2000/svg">
<path d="M59.2838 31.6309C60.9081 31.6309 62.2603 32.0177 63.3433 32.7915C64.4318 33.5653 64.9761 34.6145 64.9761 35.9371C64.9761 37.4299 64.3751 38.6348 63.1732 39.5536C61.9712 40.4746 60.5368 40.9329 58.8756 40.9329C57.7927 40.9329 56.8628 40.79 56.0861 40.504C55.315 40.2138 54.5808 39.7513 53.8863 39.1163L48.8857 42.2198L54.5213 54.5833C54.8671 55.3024 55.247 55.8764 55.6552 56.3075C56.0634 56.7343 56.5539 57.1632 57.1293 57.5943C57.5602 57.9097 57.8607 58.162 58.0365 58.3512C58.2094 58.5363 58.2973 58.7591 58.2973 59.0157C58.2973 59.4761 58.0138 59.8357 57.4468 60.0922C56.8855 60.3508 55.9103 60.4791 54.5213 60.4791H46.9126C45.0133 60.4791 43.6129 60.1721 42.7057 59.5539C41.7986 58.9379 41.053 57.9118 40.4719 56.4757L37.569 49.2426L35.8795 50.2771L33.9745 55.3991C33.8157 55.7692 33.7364 56.1287 33.7364 56.4757C33.7364 56.8184 33.8044 57.1044 33.9405 57.3335C34.0765 57.5648 34.2807 57.8087 34.5528 58.0653C34.8986 58.4416 35.0744 58.7444 35.0744 58.9736C35.0744 59.0304 35.0347 59.1734 34.961 59.4025C34.8023 59.8063 34.4507 60.088 33.9065 60.2436C33.3678 60.4013 32.5571 60.4791 31.4685 60.4791H17.8273C17.0166 60.4791 16.3929 60.3782 15.945 60.1763C15.5 59.9745 15.276 59.7032 15.276 59.3605C15.276 59.1881 15.3327 58.9988 15.4461 58.797C15.6048 58.4837 15.86 58.2419 16.2058 58.0737C16.5545 57.9013 16.7671 57.7961 16.8408 57.7625C17.4588 57.4765 17.9634 57.1864 18.3489 56.8878C18.7345 56.585 19.0633 56.0888 19.3355 55.3991L26.4225 36.837C26.5728 36.4669 26.6493 36.1095 26.6493 35.7604C26.6493 35.4472 26.5813 35.1843 26.4452 34.9699C26.3148 34.7512 26.1334 34.4989 25.9009 34.2129C25.5522 33.8386 25.3793 33.5359 25.3793 33.3046C25.3793 33.2205 25.4162 33.0649 25.4927 32.8336C25.6429 32.4593 25.9803 32.1923 26.5019 32.0346C27.0292 31.879 27.8343 31.7991 28.9172 31.7991H42.5583C43.3748 31.7991 44.0041 31.8958 44.452 32.085C44.8971 32.2701 45.121 32.535 45.121 32.8756C45.121 33.0228 45.0586 33.2099 44.9396 33.4391C44.8262 33.6368 44.6618 33.8155 44.452 33.9774C44.2394 34.1351 44.0438 34.2508 43.8624 34.3222C43.6866 34.3895 43.5619 34.4547 43.4882 34.5157C42.8673 34.7743 42.3656 35.0603 41.98 35.3736C41.5945 35.689 41.2657 36.1768 40.9935 36.837L38.5556 43.2543L53.943 33.3971C54.9465 32.7642 55.8537 32.3121 56.6644 32.043C57.4808 31.7696 58.354 31.6309 59.2838 31.6309Z" fill="#02324A"/>
<path d="M97.94 37.6108C98.6799 35.6322 99.7146 34.1414 101.047 33.1364C102.385 32.1334 104.233 31.6309 106.592 31.6309C108.452 31.6309 109.94 32.0682 111.06 32.9429C112.185 33.8176 112.749 34.9005 112.749 36.1894C112.749 36.6225 112.65 37.1272 112.454 37.7033C112.029 38.9649 111.275 39.8774 110.186 40.4367C109.104 40.9918 107.924 41.2694 106.649 41.2694C105.991 41.2694 105.401 41.2357 104.88 41.1684C104.358 41.097 103.865 41.0002 103.406 40.8825L99.9811 50.2266C98.7394 53.6476 96.67 56.2549 93.7671 58.0485C90.8643 59.8441 86.9125 60.7398 81.9176 60.7398C77.3507 60.7398 73.7986 60.0964 71.2586 58.8054C68.7243 57.5102 67.46 55.5001 67.46 52.775C67.46 51.4525 67.769 49.9995 68.3898 48.4184L72.8008 36.837C72.9595 36.4669 73.0389 36.1095 73.0389 35.7604C73.0389 35.4198 72.9709 35.1423 72.8348 34.9278C72.6987 34.7091 72.5116 34.4568 72.2792 34.1709C71.9305 33.7966 71.7576 33.4938 71.7576 33.2625C71.7576 33.1511 71.7944 33.0081 71.8709 32.8336C72.0297 32.4593 72.3755 32.1923 72.9142 32.0346C73.4584 31.879 74.255 31.7991 75.3068 31.7991H88.9479C90.6091 31.7991 91.4426 32.1733 91.4426 32.9177C91.4426 33.0922 91.4227 33.2352 91.3859 33.3466C91.264 33.6052 91.0967 33.8155 90.8869 33.9774C90.6743 34.1351 90.3568 34.3138 89.9344 34.5157C89.3136 34.7743 88.8062 35.0603 88.415 35.3736C88.0294 35.689 87.7034 36.1768 87.4398 36.837L82.3825 50.0164C82.0338 50.992 81.8609 51.8246 81.8609 52.5143C81.8609 54.4382 83.2556 55.3991 86.0451 55.3991C87.746 55.3991 89.1662 54.9912 90.3086 54.1712C91.4482 53.3533 92.4064 51.955 93.1775 49.9743L97.94 37.6108Z" fill="#02324A"/>
<path d="M141.133 31.7988C143.764 31.7988 146.054 32.0932 148.005 32.6819C149.961 33.2707 151.455 34.076 152.484 35.0958C153.51 36.1177 154.026 37.2867 154.026 38.603C154.026 39.3494 153.89 40.0391 153.618 40.672C152.489 43.5715 149.258 45.4071 143.923 46.1809C145.782 46.5846 147.251 47.2553 148.334 48.191C149.414 49.1225 149.955 50.2747 149.955 51.6478C149.955 52.2828 149.799 53.0313 149.49 53.8934C148.643 56.1306 146.93 57.7875 144.353 58.864C141.782 59.9406 138.134 60.4789 133.411 60.4789H109.258C108.448 60.4789 107.824 60.3779 107.376 60.1761C106.931 59.9742 106.707 59.703 106.707 59.3603C106.707 59.1878 106.764 58.9986 106.877 58.7967C107.036 58.4835 107.291 58.2417 107.637 58.0734C107.986 57.901 108.198 57.7959 108.272 57.7622C108.89 57.4763 109.394 57.1861 109.78 56.8876C110.166 56.5848 110.494 56.0885 110.766 55.3989L117.854 36.8368C118.004 36.4667 118.08 36.1092 118.08 35.7602C118.08 35.4469 118.012 35.1841 117.876 34.9696C117.746 34.7509 117.564 34.4986 117.332 34.2127C116.983 33.8384 116.81 33.5356 116.81 33.3043C116.81 33.2202 116.847 33.0646 116.924 32.8333C117.074 32.4591 117.411 32.192 117.933 32.0343C118.46 31.8787 119.265 31.7988 120.348 31.7988H141.133ZM138.525 39.6795C138.789 39.0466 138.922 38.4579 138.922 37.9133C138.922 36.4225 137.78 35.6761 135.497 35.6761H132.889L129.817 43.725H132.368C133.992 43.725 135.276 43.4306 136.223 42.8419C137.176 42.2532 137.941 41.1997 138.525 39.6795ZM134.284 52.3374C134.556 51.6478 134.692 51.017 134.692 50.4451C134.692 48.8975 133.49 48.1237 131.087 48.1237H128.184L124.873 56.6016H127.843C129.505 56.6016 130.84 56.2946 131.846 55.6764C132.85 55.0604 133.663 53.9481 134.284 52.3374Z" fill="#02324A"/>
<path d="M180.661 31.1475C185.543 31.1475 189.359 32.0032 192.103 33.7127C194.852 35.4242 196.23 37.8843 196.23 41.0972C196.23 42.6174 195.918 44.2553 195.3 46.0089C194.135 49.2218 192.332 51.951 189.892 54.1924C187.456 56.4296 184.554 58.1244 181.183 59.2724C177.818 60.4162 174.164 60.9882 170.218 60.9882C165.379 60.9882 161.583 60.1366 158.833 58.4313C156.089 56.7219 154.717 54.2597 154.717 51.0469C154.717 49.5834 155.046 47.9055 155.704 46.0089C156.82 42.8192 158.589 40.1131 161.01 37.8927C163.428 35.6681 166.311 33.9881 169.662 32.8548C173.01 31.7173 176.676 31.1475 180.661 31.1475ZM179.618 35.3696C178.462 35.3696 177.418 35.7144 176.488 36.4041C175.559 37.0937 174.635 38.2207 173.722 39.7851C172.815 41.3495 171.839 43.5257 170.796 46.3117C169.246 50.3278 168.472 53.0969 168.472 54.6214C168.472 55.5087 168.681 56.1521 169.107 56.5558C169.537 56.9595 170.218 57.1613 171.148 57.1613C172.304 57.1613 173.347 56.8123 174.277 56.11C175.207 55.4035 176.117 54.2765 177.01 52.729C177.9 51.1772 178.887 49.0367 179.97 46.3117C181.481 42.3482 182.238 39.5622 182.238 37.9516C182.238 37.0328 182.022 36.3746 181.591 35.9751C181.166 35.5714 180.508 35.3696 179.618 35.3696Z" fill="#02324A"/>
<mask id="mask0_862_616" style="mask-type:luminance" maskUnits="userSpaceOnUse" x="0" y="0" width="51" height="55">
<path d="M0 0H50.2301V54.9499H0V0Z" fill="white"/>
</mask>
<g mask="url(#mask0_862_616)">
<path d="M36.6985 24.4387C36.7261 24.5476 36.7468 24.629 36.7653 24.7118C36.7215 24.7118 36.6777 24.7132 36.6339 24.7132C36.657 24.6304 36.2929 24.5723 36.6985 24.4387ZM13.3149 21.8149C13.2458 21.9268 13.1836 22.0241 13.0914 22.168C12.9969 21.9791 12.7596 21.812 13.3149 21.8149ZM19.0726 17.9447C19.0796 17.9622 19.0865 17.9796 19.0934 17.9956C18.6971 18.2149 18.6833 18.2179 18.5151 18.0479C18.7063 18.013 18.8883 17.9796 19.0726 17.9447ZM49.3245 22.0111C49.1356 21.9559 48.9559 21.9065 48.7808 21.8513C48.76 21.844 48.7531 21.7946 48.7693 21.7844C48.7969 21.767 48.8568 21.7525 48.8914 21.7597C48.9789 21.7757 49.0596 21.8222 49.1471 21.8251C49.3453 21.8324 49.3683 21.8977 49.3245 22.0111ZM31.8669 21.6421C31.4245 21.6188 31.3508 21.5302 31.5881 21.3689C31.6849 21.4634 31.7747 21.5534 31.8669 21.6421ZM11.2021 6.04792C11.2067 6.07843 11.2067 6.09586 11.2113 6.11475C11.2182 6.13654 11.2297 6.15833 11.239 6.18012C11.2067 6.16269 11.1698 6.14671 11.1422 6.12637C11.0892 6.0915 11.0477 6.05083 10.9947 6.01741C10.9556 5.99272 10.9026 5.97673 10.8565 5.9564C10.9049 5.9317 10.9486 5.88957 10.9993 5.88521C11.2274 5.86487 11.3196 5.91717 11.2021 6.04792ZM22.3006 19.2304C22.637 19.2464 22.7061 19.3844 22.743 19.5486C22.5356 19.4745 22.243 19.4571 22.3006 19.2304ZM31.9038 19.9961C31.9406 20.0135 32.0075 20.0455 32.0904 20.0818C31.9844 20.1704 31.8853 20.2517 31.7863 20.336C31.6572 20.2808 31.36 20.3418 31.4338 20.1123C31.5259 20.1718 31.595 20.2198 31.6987 20.2866C31.7701 20.1835 31.8324 20.0948 31.9038 19.9961ZM36.7837 8.58302C36.6432 8.68617 36.5003 8.78932 36.3575 8.89392C36.1731 8.76462 36.21 8.68326 36.4312 8.63242C36.5118 8.61208 36.5833 8.5743 36.6846 8.53653C36.68 8.53363 36.7238 8.55397 36.7837 8.58302ZM35.9174 7.81014C35.7676 7.92927 35.6432 8.02806 35.5188 8.1254C35.4865 8.11668 35.4543 8.10651 35.4197 8.09779C35.4474 7.97867 35.4727 7.85954 35.5027 7.72733C35.6455 7.75639 35.7446 7.77528 35.9174 7.81014ZM11.3173 3.51718C11.3311 3.49829 11.3472 3.47941 11.3634 3.46197C11.6975 3.5782 12.1283 3.57384 12.3864 3.7903C12.3725 3.80774 12.3564 3.82662 12.3426 3.84405C12.0016 3.7351 11.6583 3.62614 11.3173 3.51718ZM36.0856 7.73024C36.1985 8.01644 36.0326 8.19513 35.634 8.29392C35.7907 8.09779 35.9381 7.91474 36.0856 7.73024ZM22.7245 19.675C22.872 19.6939 23.001 19.6895 23.0194 19.7142C23.1393 19.8929 23.4872 20.0135 23.3858 20.2837C23.1646 20.0789 22.9688 19.9002 22.7245 19.675ZM48.085 21.3297C48.2163 21.3791 48.3614 21.4212 48.4743 21.4852C48.5227 21.5142 48.5066 21.5883 48.5204 21.6421C48.4237 21.6493 48.3108 21.6798 48.2347 21.658C48.085 21.613 48.0412 21.3777 48.085 21.3297ZM20.4228 53.6395C20.5219 53.4928 20.4458 53.3809 20.3237 53.2633C20.2823 53.224 20.3099 53.1398 20.3491 53.0889C20.3952 53.0323 20.4896 52.9901 20.561 52.9407C20.6071 52.993 20.6601 53.0439 20.6924 53.0991C20.7108 53.1311 20.7177 53.179 20.6924 53.208C20.5772 53.3461 20.7638 53.5495 20.4228 53.6395ZM23.2522 17.2024C22.8973 17.2982 22.5794 17.3825 22.2637 17.4697C22.2384 17.461 22.2153 17.4537 22.1923 17.4464C22.3467 17.2677 22.5033 17.0876 22.6715 16.8958C22.8858 17.0091 23.054 17.0978 23.2522 17.2024ZM17.5796 15.0435C17.5842 15.0145 17.5912 14.9854 17.5958 14.9578C17.7271 14.9491 17.8584 14.9317 17.9898 14.9375C18.1994 14.9462 18.4045 14.9796 18.6141 14.9854C18.8031 14.9898 19.1279 15.183 19.1118 15.3036C19.1095 15.3239 19.0819 15.3428 19.0588 15.369C18.5565 15.2571 18.0681 15.151 17.5796 15.0435ZM16.3677 17.9041C16.3516 17.8837 16.3378 17.8634 16.3216 17.843C16.4161 17.7995 16.5083 17.721 16.6073 17.7152C16.8147 17.705 16.8262 17.6309 16.893 17.5336C17.0059 17.3636 17.2386 17.2154 17.5243 17.1951C17.8285 17.1748 18.0704 17.3128 18.2824 17.4798C17.6257 17.6251 16.9967 17.7646 16.3677 17.9041ZM45.9307 18.2251C45.8984 18.1786 45.8662 18.1307 45.8454 18.1016C45.5644 18.0784 45.2948 18.0508 45.0229 18.0334C44.9515 18.0275 44.8547 18.0348 44.8086 18.0624C44.675 18.1423 44.5851 18.2353 44.4193 18.0682C44.387 18.0348 44.099 18.0987 43.9331 18.1249C43.8916 18.1307 43.8594 18.1641 43.834 18.1786C43.6059 18.0987 43.387 18.0246 43.1636 17.9476C43.1175 17.9709 43.0507 18.0057 42.9838 18.0392C42.9631 18.0304 42.9424 18.0217 42.9216 18.0116C42.97 17.9607 43.0184 17.9099 43.0944 17.8285C42.9285 17.8242 42.7857 17.8183 42.6428 17.8125C42.6336 17.8285 42.6244 17.8445 42.6152 17.859C42.6935 17.891 42.7719 17.9229 42.8963 17.9752C42.6958 18.0159 42.5253 18.0508 42.4355 18.0697C42.1705 17.9752 41.9493 17.8968 41.6775 17.7995C42.7604 17.5932 43.8317 17.3912 44.9837 17.1719C44.8248 17.1515 44.7487 17.1428 44.6727 17.1312C44.7211 17.0978 44.7672 17.0643 44.7925 17.0455C44.6312 16.9641 44.4907 16.8915 44.3317 16.8116C44.2718 16.8406 44.1958 16.8784 44.1013 16.9249C44.0068 16.8755 43.887 16.8334 43.811 16.7694C43.6658 16.6489 43.5529 16.6953 43.4493 16.784C43.3248 16.8929 43.205 16.8944 43.0184 16.8319C42.9309 16.8028 42.7903 16.8014 42.6498 16.8159C42.4378 16.8363 42.1959 16.9699 41.9424 16.829C41.8664 16.7883 41.6636 16.8305 41.5231 16.845C41.3549 16.8639 41.1913 16.8944 41.0277 16.9176C41.007 16.9205 40.9863 16.9205 40.9678 16.9176C40.6406 16.874 40.5254 16.8987 40.2374 16.9481C40.1107 16.9699 39.9425 16.8958 39.7559 16.8581C39.6707 16.9089 39.5255 16.9961 39.3504 17.1007C39.2214 17.0774 39.0417 17.0455 38.7882 17.0004C39.6084 16.6154 40.4655 16.3394 41.3365 16.0605C41.2789 16.0213 41.242 15.9922 41.2005 15.9675C41.166 15.9472 41.1268 15.9312 41.06 15.8978C41.06 15.9559 41.06 15.9893 41.06 16.0329C40.7812 15.8876 40.4978 15.8818 40.1798 15.9849C40.0854 16.0154 39.9517 16.0024 39.8273 16.0111C39.7628 16.2682 39.3642 16.1244 39.1246 16.2551C39.1246 16.1593 39.1246 16.107 39.1246 16.075C39.0255 16.0881 38.9126 16.1113 38.7974 16.1142C38.7675 16.1142 38.7352 16.0489 38.726 16.0372C38.5555 16.0372 38.3942 16.0271 38.2352 16.0401C38.0901 16.0518 37.9518 16.0895 37.8113 16.1171C37.7929 16.12 37.7629 16.1346 37.7606 16.1331C37.498 15.9167 37.2583 16.1622 37.0003 16.1535C36.8551 16.1491 36.7077 16.2363 36.5556 16.261C36.4611 16.2755 36.3413 16.2275 36.2492 16.2435C36.0741 16.274 35.8621 16.2798 35.7215 16.229C35.3644 16.0968 35.2147 16.1259 35.0419 16.3496C35.1087 16.4222 35.1686 16.4861 35.2262 16.5515C35.2078 16.566 35.187 16.582 35.1686 16.5966C35.0534 16.5806 34.9313 16.5719 34.8207 16.5472C34.7216 16.5268 34.6317 16.489 34.4935 16.4426C35.2124 16.0837 35.9335 15.7205 36.6708 15.3515C36.5763 15.3152 36.5118 15.2905 36.4335 15.2614C36.4611 15.2251 36.4911 15.1888 36.5187 15.1539C36.4358 15.1031 35.7308 15.1757 35.5879 15.2745C35.5349 15.1859 35.4958 15.1147 35.4335 15.0116C35.3552 15.0363 35.2538 15.0537 35.1801 15.0929C34.9866 15.1975 34.8115 15.3196 34.4958 15.2382C34.5027 15.3094 34.505 15.3588 34.5119 15.4271C34.2769 15.3065 34.0557 15.199 33.9175 15.4765C33.7217 15.4765 33.5189 15.4765 33.3046 15.4765C33.1433 15.3312 33.0005 15.3486 32.7171 15.4968C32.5535 15.5825 32.3208 15.6145 32.0881 15.6798C32.0904 15.6857 32.1042 15.7365 32.1319 15.8455C31.9452 15.8077 31.8024 15.7757 31.6572 15.7525C31.6204 15.7467 31.5697 15.7757 31.5259 15.7888C31.5006 15.7961 31.4729 15.8019 31.4499 15.8121C31.3186 15.876 31.1411 15.6784 31.0121 15.8542C30.92 15.9806 30.7241 15.937 30.5329 15.9312C30.3186 15.9254 30.0974 16.0053 29.844 16.0561C29.8532 15.9893 29.8578 15.9588 29.8578 15.9472C29.6044 15.9472 29.3486 15.9559 29.0975 15.9443C28.874 15.9326 28.6482 15.8992 28.3763 15.8687C28.4754 15.8135 28.5376 15.7786 28.5952 15.7467C28.4385 15.5317 28.2772 15.4881 27.8902 15.5956C27.9938 15.3951 28.0768 15.2324 28.192 15.0145C28.2242 15.1205 28.2427 15.1743 28.2749 15.276C28.5698 15.2266 28.8555 15.1786 29.2265 15.1162C29.1666 14.9767 29.1067 14.8372 29.0514 14.7138C28.8187 14.6847 28.6021 14.6585 28.3832 14.6309C28.3878 14.615 28.3924 14.5975 28.397 14.5801C28.4984 14.5801 28.5998 14.5815 28.7035 14.5801C28.8671 14.5772 29.0652 14.615 29.0698 14.4392C29.0698 14.4116 29.1343 14.368 29.1758 14.3636C29.397 14.3433 29.6205 14.3375 29.8394 14.3157C29.9085 14.3099 29.9914 14.2794 30.0237 14.2431C30.0421 14.2227 29.9776 14.169 29.943 14.1326C29.7057 13.8711 29.2887 13.8944 28.9016 13.8726C28.4477 13.8464 27.9961 13.8159 27.5399 13.7985C27.2381 13.7883 26.934 13.797 26.5676 13.797C26.6068 13.7171 26.616 13.6082 26.6667 13.5995C26.8096 13.5762 26.9709 13.5835 27.1206 13.5995C27.2888 13.6184 27.4501 13.6765 27.6206 13.6837C28.0975 13.707 28.5791 13.7055 29.0583 13.7273C29.3716 13.7404 29.6827 13.7796 29.9983 13.7956C30.0951 13.8014 30.1965 13.7636 30.2979 13.7506C30.3555 13.7447 30.4177 13.7462 30.4753 13.7549C30.5536 13.7636 30.632 13.8014 30.7034 13.7956C31.1757 13.7549 31.6388 13.6881 32.0789 13.5719C32.2425 13.5268 32.2701 13.3743 32.1319 13.2987C32.0374 13.2479 31.9337 13.197 31.8208 13.1694C31.3785 13.0678 30.9315 12.9748 30.4891 12.844C30.6734 12.8556 30.8601 12.8731 31.0467 12.8774C31.1711 12.8789 31.2955 12.8556 31.4222 12.8556C31.6204 12.8542 31.8231 12.8484 32.0167 12.8716C32.1872 12.8934 32.2909 12.8992 32.3807 12.7801C32.5097 12.6029 32.724 12.5941 32.9567 12.738C33.1572 12.86 33.6065 12.8193 33.7908 12.6755C33.8945 12.5956 34.0419 12.5375 34.1663 12.4663C34.323 12.3777 34.4451 12.2905 34.1226 12.231C34.0626 12.2193 34.0189 12.1743 33.9636 12.1496C33.8253 12.0828 33.7193 11.9782 33.5005 12.0087C33.4659 12.013 33.4106 11.9636 33.3576 11.936C33.6502 11.8983 33.9083 11.8576 34.1709 11.8329C34.27 11.8242 34.3783 11.8518 34.482 11.8634C34.6064 11.8765 34.7539 11.923 34.8552 11.8968C35.1801 11.8169 35.4981 11.9506 35.8137 11.8837C35.952 11.8547 36.0948 11.8402 36.2377 11.8184C36.2929 11.8096 36.3482 11.7922 36.4035 11.7922C36.574 11.7922 36.7445 11.798 36.915 11.8024C36.9104 11.6774 37.0441 11.6179 37.1869 11.5525C37.362 11.4726 37.2307 11.3288 36.9726 11.2329C36.5118 11.0629 36.0003 11.0092 35.4911 10.9598C35.1179 10.922 34.7331 10.9205 34.3553 10.8973C34.2424 10.8915 34.1295 10.8682 33.9613 10.8465C34.1663 10.7738 34.2977 10.7041 34.4474 10.6794C34.641 10.6474 34.8529 10.63 35.0488 10.6431C35.4727 10.6736 35.8805 10.7201 36.2999 10.6024C36.4727 10.5544 36.71 10.598 36.9173 10.6038C37.3413 10.6155 37.756 10.6053 38.1638 10.508C38.2721 10.4818 38.4703 10.3917 38.5325 10.5879C38.5578 10.5835 38.5808 10.5791 38.6039 10.5762C38.6338 10.5196 38.6477 10.4557 38.6984 10.4077C38.7698 10.3423 38.855 10.2552 38.961 10.2363C39.2398 10.1825 39.5347 10.1535 39.825 10.1288C40.0554 10.1084 40.2397 10.0067 40.1868 9.876C40.143 9.76268 40.1614 9.75977 40.3457 9.76413C40.5093 9.76704 40.6798 9.69585 40.848 9.65808C40.8526 9.64064 40.8572 9.62321 40.8618 9.60723C40.7558 9.59416 40.6499 9.58253 40.5231 9.56655C40.537 9.44016 40.4056 9.36316 40.1775 9.34864C39.908 9.3312 39.6361 9.32394 39.3665 9.3036C39.0002 9.27745 38.6338 9.24694 38.2698 9.20772C38.203 9.199 38.1085 9.14234 38.1016 9.10312C38.097 9.0697 38.1869 9.01886 38.2514 8.99271C38.5302 8.87794 38.7997 8.71377 39.1615 8.78496C39.8481 8.91861 40.4909 8.74283 41.1199 8.64985C41.5899 8.58012 42 8.34186 42.4309 8.17624C42.5507 8.12975 42.6567 8.07019 42.7488 7.98883C41.9908 8.13702 41.2904 8.15881 40.6176 7.7375C40.5462 7.80288 40.4817 7.87261 40.401 7.93218C40.3573 7.96414 40.2812 8.00046 40.2259 7.9961C39.7605 7.95833 39.5462 8.14138 39.3896 8.37092C39.325 8.46389 39.2836 8.56268 39.2467 8.63242C38.4265 8.7312 37.627 8.82709 36.7307 8.93459C37.0187 8.66292 37.2699 8.42903 37.5602 8.15736C37.392 8.21983 37.2791 8.26922 37.1547 8.30409C37.1063 8.31716 37.0302 8.29247 36.968 8.2852C36.968 8.26341 36.968 8.24017 36.9657 8.21692C36.8044 8.29247 36.6432 8.36656 36.4773 8.4421C36.6616 8.12685 36.8436 7.81595 37.0233 7.50506C37.0003 7.49634 36.9749 7.48617 36.9496 7.47746C36.6777 7.65324 36.5648 7.89586 36.3482 8.14283C36.2607 7.89731 36.4957 7.75784 36.6132 7.59513C36.7215 7.44549 36.8252 7.29295 36.8759 7.12007C36.7399 7.21305 36.604 7.30603 36.4634 7.40191C36.4427 7.36414 36.4289 7.33508 36.4105 7.29876C36.2515 7.42516 36.0971 7.54864 35.9312 7.6823C35.8552 7.63871 35.7999 7.60385 35.7377 7.56898C35.6985 7.60094 35.6593 7.6329 35.5948 7.68811C35.4243 7.38884 35.7262 7.15349 35.7354 6.91232C35.6248 6.94283 35.4935 6.98061 35.3137 7.03145C35.3437 6.93121 35.3598 6.88182 35.3713 6.84259C35.2723 6.83678 35.1847 6.82952 35.0787 6.82225C34.9405 6.97915 34.793 7.17528 34.5995 7.35106C34.4221 7.51232 34.1917 7.64888 33.9843 7.79561C33.9521 7.7869 33.9198 7.77673 33.8875 7.76801C33.9037 7.67939 33.9175 7.59223 33.9359 7.48617C33.8599 7.48181 33.7101 7.4731 33.5604 7.46583C33.5558 7.48472 33.5512 7.50506 33.5442 7.52395C33.5949 7.54283 33.6456 7.56026 33.7608 7.60094C33.5258 7.62273 33.3507 7.63871 33.1687 7.6547C33.1894 7.74186 33.3784 7.82612 33.0489 7.84065C32.6641 7.85808 32.3461 8.02225 32.3738 8.27503C32.383 8.35784 32.4613 8.4392 32.5213 8.54961C32.4383 8.58738 32.3208 8.63968 32.1388 8.71958C32.1042 8.27213 32.0743 7.87988 32.042 7.48908C32.0121 7.48472 31.9844 7.48181 31.9545 7.47891C31.883 7.57915 31.8093 7.67794 31.7356 7.77818C31.7148 7.77673 31.6941 7.77528 31.6734 7.77528C31.6734 7.63145 31.6734 7.48908 31.6734 7.34525C31.6526 7.34089 31.6319 7.33508 31.6112 7.33073C31.3992 7.53847 31.1872 7.74767 31.0098 7.92346C30.8508 7.82758 30.7264 7.75058 30.5536 7.64598C30.39 7.93218 30.2587 8.16317 30.1274 8.39416C30.1481 8.40142 30.1688 8.41014 30.1919 8.4174C30.1182 8.4392 30.0444 8.46099 29.9223 8.49731C30.0099 8.58738 30.0882 8.66728 30.1642 8.74719C29.6988 8.74864 29.9246 9.06534 29.6481 9.17866C29.6343 9.1743 29.5882 9.14234 29.5421 9.14089C29.4039 9.13508 29.2081 9.03484 29.1735 9.23241C29.162 9.29924 29.0468 9.35881 28.98 9.42128C28.9477 9.41982 28.9155 9.41546 28.8832 9.41401C28.8625 9.31522 28.8417 9.21498 28.8141 9.07551C28.6274 9.26438 28.4754 9.40384 28.3441 9.55203C28.2542 9.65517 28.1643 9.66244 28.0238 9.59561C27.9593 9.56365 27.8717 9.55348 27.775 9.52878C27.7773 9.49973 27.7819 9.45614 27.7865 9.41401C27.7657 9.40965 27.745 9.40675 27.7243 9.40239C27.6644 9.49246 27.5353 9.59125 27.5584 9.67115C27.5814 9.74525 27.7657 9.8019 27.8625 9.90505C27.722 9.8789 27.5814 9.8542 27.4317 9.82805C27.3671 9.89488 27.2796 9.98931 27.1828 10.0939C27.1114 10.0532 27.0861 10.0285 27.0538 10.0213C26.9593 9.99658 26.858 9.97769 26.7612 9.95735C26.7474 10.0489 26.7151 10.1419 26.722 10.2319C26.7312 10.3264 26.7796 10.4179 26.8096 10.5109C26.7773 10.5181 26.7428 10.5239 26.7105 10.5297C26.6644 10.4949 26.6183 10.4615 26.5653 10.4179C26.4916 10.4774 26.4225 10.5327 26.3603 10.582C26.2704 10.5356 26.1875 10.4586 26.1161 10.4629C26.0354 10.4687 25.9571 10.5414 25.8926 10.5922C25.8211 10.6532 25.7681 10.723 25.6529 10.7738C25.6668 10.7244 25.6783 10.6736 25.6967 10.614C25.6414 10.6329 25.5953 10.6474 25.5447 10.6663C25.494 10.5995 25.4456 10.5327 25.3742 10.4426C25.2659 10.4702 25.1299 10.5036 24.9848 10.5399C25.0631 10.6939 25.1276 10.8276 24.8903 10.9322C24.8535 10.9481 24.8742 11.0164 24.865 11.0615C24.8511 11.1312 24.8581 11.2082 24.8166 11.2721C24.7175 11.4218 24.5885 11.5641 24.8949 11.6862C24.9272 11.6992 24.9433 11.7632 24.9249 11.7922C24.759 12.0435 24.5539 12.2847 24.5839 12.5724C24.6023 12.7569 24.5931 12.9457 24.577 13.1302C24.5724 13.1738 24.4894 13.2159 24.4134 13.2842C24.2083 12.9544 23.9157 12.69 23.9964 12.3559C23.8881 12.5055 23.7775 12.6552 23.6692 12.8033C23.6392 12.799 23.6093 12.7932 23.5793 12.7888C23.5793 12.6494 23.5793 12.5113 23.5793 12.3733C23.5563 12.3719 23.5355 12.3704 23.5148 12.369C23.5079 12.4111 23.5194 12.4576 23.4941 12.4925C23.448 12.5593 23.3789 12.6203 23.3167 12.6828C23.2522 12.6261 23.1853 12.5709 23.1277 12.523C23.0724 12.6799 22.8881 12.6682 22.7084 12.5985C22.6646 12.6958 22.6623 12.8106 22.5725 12.876C22.2591 13.0997 22.3375 13.3583 22.3513 13.6125C22.3628 13.829 22.4342 14.0498 22.3766 14.2576C22.3305 14.4232 22.1186 14.5699 21.9942 14.7283C21.8237 14.9476 21.667 15.1728 21.4965 15.3922C21.4504 15.4503 21.3698 15.4983 21.2453 15.5476C21.2569 15.459 21.2661 15.369 21.2776 15.2614C21.0887 15.1903 20.9159 14.7515 20.9389 14.2924C21.0887 14.2184 21.2269 14.1501 21.3444 14.0934C21.3444 13.9874 21.3214 13.8886 21.349 13.7956C21.4066 13.6024 21.1854 13.4789 21.0956 13.322C21.0702 13.277 21.091 13.2217 21.0887 13.1724C21.1555 13.2 21.2223 13.2276 21.3237 13.2711C21.3006 13.197 21.2776 13.1273 21.2569 13.0576C21.2361 13.0503 21.2154 13.0416 21.1947 13.0329C21.1785 13.0736 21.1624 13.1142 21.1486 13.1549C21.1186 13.1375 21.0887 13.1201 21.061 13.1026C21.1209 13.059 21.1808 13.0169 21.2361 12.9762C21.1924 12.9385 21.1255 12.8803 21.0564 12.8222C21.0979 12.8077 21.1394 12.7932 21.2338 12.7598C21.1947 12.3704 21.1486 11.9404 21.1025 11.5104C21.0725 11.5104 21.0426 11.5104 21.0126 11.5104C20.9988 11.5612 20.985 11.6135 20.9619 11.7065C20.8813 11.5932 20.8306 11.5176 20.7799 11.4421C21.0265 11.4348 20.9136 11.3055 20.9527 11.2314C20.9735 11.1879 20.932 11.1341 20.9435 11.0876C20.9481 11.0644 21.0357 11.0513 21.0449 11.028C21.0587 10.9903 21.038 10.9467 21.0242 10.8465C20.9113 10.9656 20.8398 11.0382 20.773 11.1094C20.5933 10.9961 20.6233 10.6896 20.7338 10.5457C20.8329 10.415 20.8145 10.2479 20.8491 10.0968C20.8076 10.0925 20.7661 10.0896 20.7223 10.0866C20.7016 10.2276 20.6786 10.3699 20.6532 10.5399C20.5518 10.5297 20.3629 10.5457 20.3099 10.5007C20.2431 10.4411 20.2707 10.3322 20.273 10.245C20.28 10.123 20.2984 10.0009 20.3122 9.8789C20.3237 9.80481 20.3376 9.72926 20.3514 9.6421C20.2615 9.61595 20.1348 9.57818 20.0081 9.54186C19.985 9.56655 19.939 9.59561 19.9436 9.62031C19.9597 9.73943 20.0173 9.86583 19.6924 9.79319C19.6579 9.78447 19.5772 9.85856 19.5173 9.89633C19.5795 10.1026 19.7063 10.3104 19.568 10.5443C19.462 10.5036 19.3929 10.4789 19.303 10.444C19.3077 10.508 19.31 10.5515 19.3146 10.5966C19.2777 10.6009 19.2431 10.6053 19.2063 10.6096C19.1763 10.5268 19.0842 10.4251 19.1302 10.367C19.2316 10.2392 19.3745 10.1302 19.3699 9.97478C19.3699 9.95154 19.4712 9.92539 19.5265 9.90069C19.4643 9.77575 19.3906 9.65227 19.3399 9.52442C19.2524 9.30215 19.1786 9.07697 19.1049 8.85324C19.0243 8.599 18.9275 8.34622 18.8768 8.08908C18.8077 7.74477 18.78 7.39755 18.734 7.04598C18.6971 7.0547 18.6141 7.07504 18.4713 7.107C18.4367 6.87165 18.4045 6.65082 18.3699 6.43145C18.3492 6.42564 18.3284 6.41983 18.3054 6.41402C18.2755 6.47068 18.2225 6.52734 18.2202 6.58545C18.2109 6.80772 18.2478 7.03436 18.2086 7.25373C18.1879 7.36704 18.0404 7.47019 17.9437 7.58641C17.9068 7.57334 17.8584 7.55591 17.8123 7.53993C17.8031 7.57043 17.7916 7.60094 17.7824 7.63145C17.7617 7.69683 17.7409 7.76365 17.6833 7.82467C17.734 7.93508 17.8561 8.05421 17.5313 8.09779C17.5082 7.8915 17.4875 7.68085 17.4598 7.47165C17.4483 7.38884 17.416 7.30603 17.4114 7.22177C17.4068 7.13315 17.4368 7.04307 17.4322 6.95446C17.4137 6.6392 17.5451 6.31959 17.3538 6.0087C17.34 5.98836 17.3907 5.95204 17.3838 5.92589C17.3561 5.81257 17.3124 5.70216 17.2847 5.58739C17.264 5.50022 17.2686 5.41015 17.2502 5.32298C17.2271 5.22565 17.1949 5.12831 17.1557 5.03388C17.1488 5.01499 17.0658 4.98594 17.052 4.9932C16.847 5.08182 16.6419 4.9409 16.4484 4.99175C16.2479 5.04405 16.0613 5.1196 15.8977 5.1748C15.8401 4.9133 15.665 4.62129 15.7433 4.35834C15.8424 4.01694 15.4945 3.70749 15.6742 3.37626C15.6949 3.33994 15.589 3.27602 15.6051 3.22081C15.5728 3.07408 15.5406 2.9259 15.5014 2.73558C15.4023 2.83001 15.3424 2.88667 15.2664 2.96076C15.2157 2.85616 15.1742 2.77045 15.1351 2.68764C14.6996 2.7719 14.2872 2.84309 14.0729 3.12057C13.9692 3.0334 13.9024 2.97384 13.8471 2.92735C13.8471 2.77626 13.8517 2.63098 13.8448 2.48425C13.8333 2.27505 13.8333 2.0644 13.7895 1.85665C13.7573 1.70847 13.6927 1.55302 13.5706 1.42808C13.5315 1.3845 13.2711 1.40484 13.1236 1.42518C12.9071 1.45714 12.732 1.52542 12.7343 1.6983C12.7343 1.83777 12.6997 1.97578 12.6744 2.15883C12.0937 1.83341 11.8703 1.39467 11.4256 1.05762C10.9809 0.720579 10.5431 0.379175 10.0501 0C10.1745 0.280386 10.4694 0.541887 10.0639 0.682806C10.1768 0.765615 10.3081 0.864404 10.4418 0.96174C10.4026 0.977721 10.3634 0.992249 10.3243 1.00823C10.3243 1.06053 10.2966 1.12155 10.3289 1.16368C10.4556 1.32784 10.5915 1.4891 10.7413 1.64455C10.7989 1.70556 10.9003 1.75205 10.997 1.81452C10.9141 1.92493 10.7804 1.91041 10.6053 1.8305C10.0593 1.58353 9.50863 1.34382 8.95796 1.10411C8.9188 1.08668 8.86811 1.07796 8.82203 1.06634C8.81281 1.07506 8.79207 1.08232 8.79438 1.08958C8.81281 1.22615 9.33583 1.5966 9.52476 1.65036C9.63765 1.68232 9.70908 1.77239 9.79893 1.83631C9.77359 1.85665 9.74825 1.8799 9.72521 1.90024C9.30587 1.7535 8.88884 1.60677 8.49025 1.46585C8.45108 1.55447 8.41882 1.63438 8.38196 1.71283C8.33818 1.80435 8.52942 2.11379 8.68148 2.14576C9.0916 2.23583 9.3796 2.39273 9.60079 2.63389C9.69295 2.73268 9.951 2.77336 10.1376 2.83437C10.4026 2.92009 10.6583 3.0058 10.7643 3.20193C10.7943 3.25713 10.8772 3.30072 10.9371 3.34866C10.9187 3.36028 10.9003 3.3719 10.8818 3.38207C10.1607 3.1351 9.43951 2.88813 8.72065 2.6397C8.70683 2.65423 8.693 2.6673 8.68148 2.68183C8.93723 2.80677 9.18837 2.93607 9.45333 3.05665C9.66069 3.15253 9.88649 3.22808 9.86345 3.43292C9.85654 3.49248 9.97634 3.55931 10.0455 3.6305C9.74364 3.79321 9.7805 3.98933 10.1399 4.08667C10.2137 4.01548 10.2851 3.94575 10.3565 3.87602C10.4233 3.96173 10.4832 4.0489 10.557 4.1317C10.6629 4.24502 10.6307 4.42952 10.9417 4.4426C10.9579 4.44405 10.9809 4.45422 10.9878 4.46294C11.1629 4.73897 11.732 4.78981 11.8795 5.08763C11.9509 5.23001 12.2113 5.18352 12.3725 5.23582C12.5269 5.28521 12.3725 5.49441 12.6651 5.51185C12.7043 5.51475 12.7412 5.5409 12.8495 5.58594C11.7297 5.48279 10.7159 5.34332 9.72981 5.01499C9.78511 5.0702 9.81276 5.10071 9.84502 5.12976C9.87727 5.16027 9.90262 5.20095 9.9487 5.21548C10.2321 5.30991 10.1146 5.50894 10.2344 5.64695C10.2551 5.6731 10.1261 5.75446 10.057 5.80676C10.0063 5.84453 9.94178 5.87795 9.84502 5.93751C9.98786 5.93751 10.0501 5.93751 10.1146 5.93751C10.1146 5.95204 10.1146 5.96657 10.1146 5.98109C10.0478 5.99126 9.98095 5.99998 9.86345 6.01596C9.95561 6.0639 10.0293 6.08424 10.0639 6.12056C10.2528 6.3225 10.5639 6.43 10.8519 6.56221C10.9371 6.60143 10.9325 6.72492 10.9579 6.81063C10.9602 6.81499 10.8611 6.83242 10.8196 6.84114C10.9049 6.93557 11.0385 7.02709 11.0731 7.13169C11.1076 7.2392 11.0431 7.35833 11.0247 7.4731C10.9855 7.72588 11.0869 7.78835 11.4717 7.81886C11.7574 7.84065 12.0361 7.89876 12.3126 7.96123C12.0684 8.06728 11.9463 8.05857 11.2551 7.92927C11.4141 7.999 11.573 8.06728 11.7643 8.15009C11.6882 8.17334 11.6352 8.18932 11.6445 8.18641C11.7044 8.31135 11.7551 8.43048 11.8196 8.5467C11.8403 8.58157 11.9048 8.60481 11.944 8.63677C12.0108 8.69053 12.1191 8.74428 12.1283 8.80384C12.1698 9.10893 12.5499 9.18593 12.9002 9.29634C12.8886 9.32975 12.8702 9.37624 12.8472 9.44016C13.5292 9.49537 13.8817 9.83677 14.3586 10.1157C14.5176 10.0605 14.6881 10.0024 14.7941 9.96607C14.9139 10.0242 15.0014 10.0983 15.1143 10.1157C15.3586 10.1564 15.4968 10.2682 15.6396 10.3758C15.7595 10.4658 15.6834 10.5603 15.4945 10.5617C15.3493 10.5646 15.2042 10.553 15.0613 10.5341C14.7272 10.4862 14.3978 10.415 14.0591 10.3845C13.8586 10.367 13.6536 10.3816 13.4669 10.3249C13.3425 10.2871 13.225 10.2421 13.119 10.2043C13.1651 10.3569 13.202 10.4804 13.2412 10.6038C13.2665 10.6823 13.3011 10.7578 13.3356 10.8508C13.3264 10.8508 13.278 10.8479 13.1398 10.8392C13.3402 10.9975 13.5015 11.1268 13.6789 11.2678C13.6213 11.3448 13.6213 11.3448 13.8356 11.4058C13.8425 11.4087 13.8494 11.413 13.8517 11.4174C13.9047 11.5089 13.96 11.6004 14.0107 11.692C14.066 11.7893 14.1098 11.8794 13.937 11.9593C13.8909 11.9796 13.9093 12.061 13.9093 12.1147C13.9093 12.183 13.9185 12.2498 13.9231 12.3181C14.3448 12.3385 14.8378 12.6363 14.8816 12.9138C15.0083 12.86 15.1212 12.8135 15.241 12.7641C15.2894 12.8193 15.3355 12.8716 15.3539 12.892C15.5475 12.9196 15.6949 12.9414 15.8516 12.9632C15.8539 12.9472 15.8654 12.8992 15.8724 12.8644C15.9507 12.8687 16.029 12.8731 16.1442 12.8803C16.1604 12.9632 16.1857 13.0983 16.218 13.2682C16.529 13.2334 16.7963 13.2043 17.0727 13.1738C17.0866 13.1811 17.1327 13.2305 17.1926 13.2377C17.4114 13.2653 17.6349 13.274 17.8561 13.2973C18.1234 13.3263 18.2409 13.4295 18.1925 13.6431C17.2179 13.476 16.2502 13.3104 15.2802 13.1433C15.2802 13.1433 15.2618 13.2058 15.2825 13.2116C15.5129 13.2697 15.4 13.3816 15.3862 13.4702C15.3655 13.582 15.3056 13.6895 15.5198 13.7593C15.5636 13.7738 15.559 13.845 15.5913 13.9263C15.3102 13.9016 15.0775 13.8799 14.8102 13.8552C14.8563 13.7912 14.907 13.7477 14.9139 13.6997C14.9185 13.6648 14.8701 13.5951 14.8425 13.5937C14.4392 13.5806 14.3448 13.3162 14.0499 13.2087C13.8264 13.1273 13.6743 12.9632 13.4508 12.8469C13.4854 12.8949 13.5199 12.9414 13.5637 12.9995C13.2112 12.9544 12.9255 12.8513 12.7573 12.6624C12.6536 12.5477 12.5569 12.5389 12.3495 12.6145C12.5707 12.3559 12.1675 12.2876 12.1053 12.1234C12.0776 12.1307 12.0523 12.1394 12.0269 12.1481C12.0822 12.2063 12.1398 12.2629 12.2066 12.3312C12.0454 12.3399 11.8887 12.3457 11.7666 12.3515C11.709 12.2644 11.6606 12.1917 11.6053 12.1104C11.1606 12.3312 11.6352 12.4576 11.6675 12.6348C11.4624 12.6377 11.3403 12.5854 11.2597 12.4648C11.2251 12.4096 11.1191 12.3748 11.0109 12.3544C10.9049 12.2992 10.9141 12.1859 10.656 12.2339C10.527 12.2586 10.3243 12.1423 10.1653 12.0799C9.96482 12 9.77359 11.9084 9.57544 11.8198C9.57544 11.9157 9.57544 12.0116 9.57544 12.1365C9.46485 12.0828 9.40034 12.0508 9.31278 12.0072C9.31278 12.0871 9.31278 12.154 9.31278 12.2513C8.88193 12.1903 8.49946 12.1104 8.18842 11.9244C8.09856 11.8692 7.99488 11.8242 7.90502 11.7704C7.74605 11.6731 7.62393 11.705 7.51334 11.8038C7.44422 11.9825 7.27833 12.1176 7.02719 12.2339C7.05484 12.1409 7.07788 12.0639 7.10783 11.9607C7.13548 11.9506 7.21612 11.9172 7.33132 11.8736C7.21382 11.83 7.12626 11.798 7.0341 11.7646C7.08479 11.7109 7.13548 11.6571 7.17004 11.6208C7.29906 11.6891 7.40735 11.7486 7.52025 11.8067C7.46035 11.7399 7.2622 11.6803 7.53868 11.5917C7.42809 11.5336 7.34975 11.4857 7.2622 11.4464C7.21151 11.4247 7.14469 11.4174 7.08479 11.4029C7.07788 11.4392 7.08479 11.4784 7.06175 11.5104C7.00645 11.5801 6.89816 11.644 6.87973 11.7167C6.8636 11.7879 6.93272 11.8663 6.95116 11.9157C6.75071 11.9491 6.60094 11.9753 6.44657 12C6.08945 11.6862 5.32221 11.4174 5.0319 11.5089C5.04112 11.4247 5.05033 11.3404 5.06185 11.2416C4.72777 11.3317 4.52041 11.445 4.59644 11.7094C4.48815 11.6353 4.44437 11.6063 4.43285 11.5975C4.32456 11.644 4.2301 11.6847 4.09877 11.7414C4.09877 11.7428 4.1149 11.7922 4.13103 11.8445C4.06651 11.8431 4.01813 11.8416 3.96053 11.8402C4.00431 11.8968 4.04117 11.9462 4.07803 11.9941C4.05269 12.0029 4.02735 12.0116 4.002 12.0218C3.87758 11.9041 3.75086 11.7864 3.60801 11.6527C3.57576 11.6833 3.53659 11.721 3.49972 11.7588C3.52507 11.7588 3.54811 11.7603 3.57345 11.7603C3.55041 11.8721 3.54811 11.9869 3.49742 12.0929C3.43291 12.2222 3.32462 12.3414 3.21863 12.4895C3.12647 12.4271 3.06887 12.3893 3.06426 12.3849C2.9145 12.4169 2.81082 12.4474 2.70253 12.459C2.55968 12.4736 2.43065 12.4518 2.29472 12.5433C2.14726 12.6421 2.01132 12.4997 1.93068 12.4387C1.79935 12.3399 1.8247 12.3283 1.70028 12.4372C1.66111 12.4736 1.60812 12.5055 1.55973 12.5389C1.40767 12.4823 1.35467 12.2556 1.04133 12.3791C1.09893 12.4605 1.14731 12.5331 1.22104 12.6348C0.751018 12.6755 0.317861 12.7133 -0.142944 12.7525C0.0137295 12.9443 0.165796 12.9675 0.327077 12.8556C0.495271 12.9486 0.663466 13.0358 0.815531 13.1302C0.859308 13.1578 0.882347 13.2464 0.875436 13.2479C0.605864 13.3162 0.919212 13.3888 0.827051 13.4629C1.08049 13.4615 1.29477 13.4484 1.34085 13.6416C1.35237 13.6866 1.50444 13.7186 1.5436 13.7375C1.85234 13.7055 2.11731 13.6634 2.38688 13.6576C2.49517 13.6561 2.60576 13.7375 2.72327 13.7651C2.82234 13.7883 2.93524 13.7825 3.03661 13.8014C3.09652 13.8101 3.1449 13.8406 3.2578 13.8857C2.81082 13.9539 2.45139 14.0106 2.08966 14.0673C2.09196 14.0774 2.09196 14.0891 2.09427 14.0992C2.25555 14.0992 2.42374 14.0862 2.58042 14.105C2.6864 14.1181 2.82004 14.1646 2.86612 14.2213C3.01357 14.4101 3.00205 14.4145 3.30388 14.5336C3.30388 14.4203 3.30388 14.3186 3.30388 14.1791C3.37761 14.23 3.45134 14.2619 3.47899 14.307C3.56884 14.4392 3.70017 14.474 3.93518 14.4799C4.40751 14.4886 4.82454 14.3869 5.2623 14.3113C5.46736 14.2765 5.72311 14.3607 5.99959 14.3956C5.54109 14.6992 5.00195 14.7922 4.42825 14.8489C4.60335 15.0159 4.59874 15.0232 4.20015 15.1278C4.50198 15.1278 4.80611 15.1278 5.06877 15.1278C5.25078 15.0813 5.42128 15.0377 5.53418 15.0087C5.68625 15.1351 5.79453 15.2237 5.90052 15.3123C5.92817 15.3021 5.95351 15.292 5.98116 15.2832C5.98116 15.2484 5.98116 15.215 5.98116 15.1946C6.12171 15.2368 6.25304 15.2774 6.38667 15.3181C6.42123 15.2527 6.45579 15.1874 6.49035 15.1234C6.518 15.1568 6.55486 15.2019 6.6309 15.2963C6.71845 15.2048 6.77605 15.1423 6.84287 15.0697C7.02258 15.1612 7.22764 15.2484 7.40044 15.0406C7.40966 15.0276 7.46956 15.0334 7.50873 15.029C7.67232 15.0101 7.8336 14.9912 7.99488 14.952C8.26215 15.0174 8.11699 15.1481 8.03635 15.2513C7.95802 15.3544 7.81747 15.4372 7.75757 15.4852C7.8912 15.7263 8.00179 15.9225 8.10087 16.0982C8.47642 16.0445 8.84046 16.0169 9.17224 15.9399C9.68373 15.8208 10.1722 15.6653 10.6722 15.5273C10.7943 15.4939 10.9233 15.4692 11.0408 15.4329C11.1399 15.4024 11.2251 15.3544 11.3242 15.3225C11.4094 15.2963 11.5016 15.2789 11.5915 15.2585C11.6007 15.3108 11.6122 15.3631 11.6168 15.4154C11.6191 15.4387 11.6122 15.4634 11.6076 15.4866C11.1376 15.475 10.7851 15.5941 10.4994 15.8338C10.6169 15.8745 10.7182 15.9094 10.8542 15.9544C10.8381 16.0721 10.815 16.2087 10.792 16.3699C10.9924 16.3598 11.1675 16.3627 11.3334 16.338C11.5454 16.3075 11.6422 16.3525 11.6145 16.4832C11.5869 16.6358 11.6468 16.7578 11.8864 16.8058C12.0016 16.829 12.1398 16.8087 12.2665 16.8101C12.8794 16.8217 13.4163 16.6779 13.9347 16.4905C14.0199 16.4585 14.1259 16.4484 14.2181 16.4295C14.2296 16.5108 14.2388 16.5719 14.248 16.6401C14.0568 16.7273 14.0153 16.8958 14.1535 17.0309C14.2572 17.1326 14.3517 17.2387 14.4692 17.3665C14.5544 17.3665 14.6881 17.3665 14.8448 17.3665C14.8931 17.4827 14.9369 17.5932 14.9807 17.7021C15.0844 17.9564 15.3056 18.0304 15.8032 18.0014C16.0313 17.9869 16.264 17.9985 16.4967 17.9985C16.5083 18.0217 16.5198 18.0435 16.5313 18.0668C16.4299 18.0944 16.3285 18.1423 16.2272 18.1438C15.8101 18.1525 15.3931 18.1438 14.9761 18.1496C14.7618 18.1525 14.5429 18.1554 14.3425 18.1932C14.2065 18.2179 14.0176 18.2949 13.9969 18.3646C13.9554 18.5084 13.8172 18.5491 13.649 18.5985C13.6052 18.6101 13.5798 18.6595 13.5614 18.6958C13.49 18.8513 13.4232 19.0082 13.3564 19.1607C12.8172 19.1651 12.308 19.2304 11.8933 19.4266C11.7274 19.5065 11.5293 19.6154 11.5431 19.8159C11.5615 20.0585 11.3265 20.2517 10.9993 20.3869C10.9486 20.4072 10.9118 20.4362 10.8404 20.4798C10.9625 20.5379 11.0754 20.5902 11.2067 20.6498C10.9164 20.7254 10.6353 20.7181 10.3565 20.6469C10.004 20.5568 9.75516 20.6876 9.48789 20.7965C9.33122 20.8605 9.16302 20.9157 9.05473 20.9549C8.92801 21.1321 8.83585 21.3007 8.68839 21.4488C8.6331 21.504 8.41652 21.4895 8.34049 21.5433C8.21376 21.6348 8.14234 21.7568 8.03405 21.8803C8.00871 21.8701 7.9488 21.8469 7.8912 21.8237C7.89581 21.8411 7.90272 21.8585 7.90963 21.876C7.6032 21.9588 7.29906 22.0416 6.99724 22.1258C6.95116 22.1375 6.91429 22.1578 6.86821 22.1636C6.59864 22.2028 6.5756 22.3031 6.64472 22.4527C6.66085 22.4876 6.52952 22.5573 6.44888 22.5994C6.40971 22.6198 6.29451 22.6082 6.2899 22.6212C6.20004 22.8755 5.69777 22.8377 5.54109 23.0513C5.4881 23.1253 5.31991 23.1675 5.2024 23.2241C5.46276 23.4072 5.64477 23.4203 5.99038 23.3186C6.13092 23.2779 6.30142 23.2822 6.4627 23.2648C6.54565 23.4537 6.31294 23.4958 6.17931 23.5568C6.02955 23.6236 5.84292 23.6542 5.63095 23.7123C5.88439 23.8241 5.85905 23.9142 5.67012 23.9999C5.89822 24.0406 5.79684 24.106 5.70468 24.1568C5.58026 24.2222 5.44663 24.2832 5.30838 24.3355C5.1471 24.3965 4.97891 24.4474 4.81532 24.5055C4.77846 24.5186 4.73929 24.536 4.71395 24.5563C4.52962 24.7147 4.35913 24.8818 4.15868 25.0314C4.07343 25.0968 3.92366 25.1607 3.79925 25.165C3.47438 25.1767 3.41678 25.3641 3.23015 25.4658C3.1979 25.4832 3.2002 25.5471 3.22094 25.582C3.32231 25.7534 3.19098 25.8638 2.98362 25.9525C2.82464 26.0222 2.68871 26.0919 2.70944 26.2357C2.72096 26.3113 2.66567 26.3912 2.65875 26.4682C2.65184 26.5437 2.66797 26.6193 2.67488 26.6963C3.06196 26.6091 3.3707 26.5408 3.67944 26.4711C3.69787 26.4856 3.7163 26.5016 3.73704 26.5161C3.55502 26.7006 3.36609 26.8808 3.19559 27.0696C3.13338 27.1379 3.05505 27.2324 3.08269 27.2977C3.15182 27.4488 3.09652 27.5679 2.95136 27.6813C2.6841 27.8905 2.88916 28.1578 2.73248 28.3888C2.63341 28.5355 2.67719 28.72 2.64954 28.8856C2.64263 28.9321 2.6265 28.9859 2.58042 29.0193C2.49978 29.0774 2.49747 29.1137 2.58963 29.1689C2.6288 29.1936 2.6288 29.2532 2.6265 29.2968C2.62419 29.3723 2.60346 29.4493 2.61728 29.5306C2.73709 29.2038 3.01818 28.935 3.35227 28.6895C3.59649 28.5123 3.84072 28.3336 4.11259 28.1738C4.40751 28.0009 4.55036 28.0198 4.76463 28.2391C4.86371 28.3423 4.9167 28.4643 5.02038 28.566C5.15171 28.6982 5.31069 28.8173 5.49962 28.9786C5.81527 28.3466 6.10327 27.7699 6.41432 27.1466C6.44657 27.4009 6.44888 27.6202 6.50418 27.8353C6.54334 27.9849 6.64933 28.1273 6.72767 28.274C6.75992 28.2696 6.79218 28.2653 6.82443 28.2624C7.16082 27.7539 7.49491 27.2469 7.87046 26.6817C8.00179 27.1074 8.11699 27.4793 8.23911 27.8774C8.43265 27.7917 8.56858 27.7307 8.71143 27.6667C8.81051 27.2106 8.69991 26.7224 9.12385 26.2837C9.30357 26.3665 9.39573 26.3142 9.47867 26.2052C9.67913 25.9495 9.89801 25.6982 10.11 25.444C10.133 25.4469 10.1584 25.4512 10.1837 25.4541C10.1837 25.6125 10.1837 25.7723 10.1837 25.9452C10.3427 25.8856 10.4602 25.842 10.6307 25.7781C10.6307 26.0106 10.6307 26.2052 10.6307 26.3985C10.6745 26.4014 10.7159 26.4028 10.7574 26.4057C10.8012 26.2575 10.8427 26.1094 10.8864 25.9655C11.0039 25.9844 11.1238 26.0048 11.2413 26.0251C11.2505 25.9466 11.239 25.8653 11.2712 25.7912C11.3035 25.7229 11.4141 25.6692 11.4371 25.6009C11.5431 25.3002 11.6306 24.9965 11.7274 24.6885C11.9924 24.751 11.9924 24.751 12.2297 25.0546C12.2827 25.0198 12.3311 24.9878 12.4186 24.9297C12.4532 25.0575 12.4831 25.1636 12.5131 25.2696C12.543 25.2755 12.573 25.2827 12.6029 25.2885C12.8426 24.9602 13.0891 24.6319 13.3241 24.3006C13.4324 24.1481 13.5269 23.9912 13.6213 23.8328C13.6697 23.7486 13.695 23.6585 13.7457 23.5743C13.778 23.5205 13.8517 23.4755 13.8794 23.4203C13.9347 23.3055 13.9784 23.1864 14.0153 23.0658C14.043 22.9743 13.9347 22.8464 14.2042 22.8246C14.2503 22.8203 14.3056 22.768 14.3194 22.7316C14.3886 22.5646 14.4439 22.3975 14.5084 22.2159C14.5729 22.2188 14.7088 22.2479 14.7941 22.2188C14.8862 22.1854 14.9277 22.0968 15.0337 21.9922C15.0729 22.2842 15.1051 22.5123 15.1443 22.7839C15.2733 22.6881 15.3816 22.6052 15.5014 22.5123C15.5452 22.5094 15.6811 22.521 15.6903 22.5036C15.7779 22.3496 16.1281 22.2958 16.0843 22.0924C16.0797 22.0692 16.1811 22.043 16.2133 22.0111C16.3954 21.8396 16.5958 21.674 16.7364 21.4895C16.8239 21.3762 17.0751 21.2847 16.9322 21.1191C16.9253 21.1103 16.9529 21.0842 16.976 21.0755C17.4276 20.9011 17.6073 20.6062 17.81 20.3229C17.9437 20.1355 18.0934 19.9539 18.2225 19.7651C18.2778 19.6823 18.2939 19.5893 18.3653 19.5065C18.3584 19.5718 18.3492 19.6358 18.3423 19.704C18.5635 19.582 18.7616 19.4745 18.9551 19.3626C18.9713 19.3525 18.9482 19.3205 18.9574 19.3002C19.0058 19.1738 18.9736 19.0285 19.2777 18.9907C19.3745 18.9777 19.4666 18.8614 19.5104 18.7815C19.5887 18.6464 19.6901 18.6639 19.8099 18.7452C20.0403 18.8992 19.9873 19.3612 19.7016 19.4803C19.2961 19.6503 19.2362 19.9016 19.2293 20.1689C19.227 20.2314 19.3077 20.2939 19.3491 20.3563C19.4275 20.4798 19.439 20.5699 19.204 20.6542C18.9805 20.7355 18.7662 20.8532 18.9597 21.0711C19.0173 21.1365 18.9045 21.2614 18.8745 21.3588C18.8538 21.4227 18.7846 21.5186 18.8284 21.5462C19.1579 21.7626 18.916 21.966 18.7823 22.152C18.6648 22.3161 18.5727 22.4643 18.5565 22.6517C18.5381 22.8958 18.4183 23.1384 18.3146 23.3767C18.2109 23.6193 18.0612 23.8546 17.9575 24.0987C17.8676 24.3021 17.8285 24.5127 17.7432 24.7176C17.6856 24.8629 17.6257 25.0169 17.5013 25.1418C17.2294 25.4236 17.2617 25.7505 17.0981 26.0469C17.0543 26.1268 16.9529 26.1951 16.9299 26.275C16.8193 26.6309 16.7271 26.9883 16.6281 27.3457C16.5682 27.5534 16.4852 27.7597 16.4484 27.9689C16.3908 28.274 16.3769 28.582 16.3216 28.8871C16.2894 29.0614 16.1995 29.2314 16.1627 29.4057C16.1074 29.6599 16.0797 29.9156 16.0382 30.1713C16.0336 30.2018 16.0405 30.2425 16.0129 30.2599C15.6489 30.4793 15.8355 30.7379 15.8677 30.9878C15.8862 31.1243 15.8677 31.2624 15.8608 31.3989C15.8539 31.4774 15.8424 31.5558 15.8171 31.6314C15.7756 31.7563 15.7456 31.8871 15.665 32.0018C15.5728 32.1311 15.5267 32.2473 15.559 32.3984C15.5936 32.5611 15.5244 32.7369 15.4738 32.9055C15.4277 33.0638 15.3286 33.2164 15.2894 33.3747C15.2572 33.5084 15.2894 33.6478 15.2733 33.7844C15.2572 33.8977 15.2157 34.0096 15.1788 34.1214C15.1604 34.1694 15.0867 34.2202 15.1005 34.2624C15.2157 34.6023 14.9577 34.9553 15.2019 35.2924C15.241 35.3476 15.1627 35.4318 15.1535 35.5045C15.1282 35.7021 15.1143 35.8982 15.089 36.0958C15.0821 36.1495 15.0475 36.2018 15.036 36.2556C15.0268 36.2977 15.0037 36.3587 15.0383 36.3834C15.3309 36.5897 15.2203 36.8512 15.2572 37.0836C15.3033 37.3626 15.2387 37.6488 15.2157 37.9321C15.1996 38.134 15.1489 38.3359 15.1627 38.5364C15.1858 38.8865 15.248 39.2381 15.294 39.5882C15.3102 39.7045 15.3194 39.8207 15.3332 39.9384C15.3539 40.1098 15.3862 40.2812 15.3977 40.4512C15.4208 40.8754 15.4231 41.2996 15.453 41.7238C15.4784 42.103 15.5337 42.4807 15.5636 42.8599C15.5705 42.9674 15.5106 43.0778 15.5129 43.1868C15.5198 43.4454 15.5567 43.704 15.5567 43.9626C15.5567 44.3461 15.5106 44.7311 15.5314 45.1132C15.5429 45.3529 15.6419 45.5897 15.6972 45.8279C15.7203 45.918 15.7456 46.0095 15.741 46.0996C15.7295 46.4323 15.8171 46.7461 16.0935 47.041C16.1926 47.1471 16.2272 47.301 16.2018 47.4245C16.1765 47.5408 16.3032 47.5829 16.3447 47.6599C16.4276 47.8211 16.4507 47.9926 16.506 48.1596C16.5221 48.2061 16.5751 48.2468 16.6027 48.2947C16.688 48.4371 16.7847 48.578 16.8423 48.7248C16.8769 48.8163 16.8124 48.9224 16.8562 49.0095C16.946 49.1984 17.1027 49.3771 17.188 49.5659C17.2456 49.6923 17.2617 49.8347 17.2363 49.9669C17.2064 50.1107 17.3446 50.1935 17.4391 50.2996C17.4806 50.3446 17.522 50.4042 17.5105 50.4521C17.4414 50.7558 17.5451 51.0361 17.7225 51.318C17.8308 51.4923 17.8999 51.6841 17.9598 51.8729C18.0197 52.056 17.8907 52.2739 18.1833 52.4512C18.3031 52.5238 18.1948 52.7533 18.1718 52.9102C18.1395 53.1427 18.0957 53.3679 18.2179 53.6032C18.2755 53.7107 18.2202 53.8691 18.1257 53.9722C17.999 54.1146 18.0243 54.1669 18.2478 54.2541C18.6717 54.4211 19.1556 54.3964 19.6049 54.4691C19.9136 54.5185 20.2062 54.6129 20.4942 54.7044C20.5518 54.7218 20.5449 54.8119 20.5795 54.8671C20.621 54.9296 20.6716 55.0371 20.7292 55.04C20.8537 55.0473 21.0057 55.0168 21.1071 54.9703C21.2177 54.9194 21.2891 54.8352 21.3721 54.764C21.6117 54.562 21.7776 54.5562 22.0218 54.748C22.061 54.6681 22.0955 54.5896 22.1485 54.4763C22.2683 54.578 22.3605 54.6565 22.4527 54.7349C22.4711 54.7277 22.4918 54.7189 22.5103 54.7117C22.4642 54.5649 22.402 54.4211 22.3766 54.2744C22.3582 54.1741 22.4181 54.0695 22.402 53.9708C22.3328 53.5189 22.3006 53.0628 22.1554 52.6211C21.9504 52.0037 21.6992 51.3877 21.3859 50.7877C21.1831 50.3998 20.8537 50.0352 20.5449 49.672C20.2062 49.271 19.8168 48.8875 19.4643 48.4909C19.0657 48.0405 18.9091 47.5379 18.757 47.0395C18.651 46.701 18.6118 46.3538 18.5128 46.0139C18.4091 45.6507 18.2755 45.2904 18.1487 44.9301C18.0174 44.5582 17.9275 44.1776 17.7294 43.8216C17.6142 43.6153 17.5727 43.4236 17.5589 43.21C17.5336 42.7815 17.4598 42.3529 17.3907 41.9243C17.3608 41.7267 17.2709 41.5321 17.2479 41.3345C17.2294 41.1689 17.264 41.0018 17.2778 40.8362C17.2939 40.6241 17.3262 40.4134 17.3308 40.2028C17.3354 39.9631 17.3216 39.7234 17.3124 39.4822C17.3032 39.2367 17.3055 38.9911 17.2732 38.7456C17.2179 38.2967 17.1304 37.8478 17.0751 37.3975C17.0451 37.1708 17.0543 36.9442 17.0405 36.7175C17.0221 36.3573 17.0175 35.997 16.9783 35.6396C16.923 35.1485 17.0681 34.6749 17.2064 34.197C17.2939 33.8977 17.2847 33.5868 17.3377 33.2832C17.4022 32.9272 17.5036 32.5728 17.552 32.2154C17.6027 31.8595 17.6234 31.5006 17.6257 31.1418C17.6257 30.8759 17.6971 30.6202 17.787 30.3631C17.8515 30.18 17.8861 29.9912 17.9252 29.8052C18.0059 29.4072 18.0796 29.0076 18.1533 28.6081C18.1649 28.5529 18.1649 28.4977 18.1718 28.3902C18.2363 28.5064 18.2731 28.5762 18.3377 28.6968C18.439 28.4265 18.5381 28.1985 18.6095 27.966C18.7432 27.5316 18.9736 27.0943 18.9597 26.6614C18.9367 26.0222 19.1464 25.4236 19.4044 24.8193C19.4712 24.6667 19.4782 24.5026 19.515 24.3442C19.6325 23.8445 19.7477 23.3462 19.8698 22.8479C19.9827 22.3859 20.1048 21.9239 20.2247 21.4634C20.2477 21.3747 20.2753 21.2847 20.3122 21.1961C20.3998 20.9767 20.6094 20.9418 20.8813 21.0958C20.909 21.1118 20.9412 21.1249 20.9781 21.1423C20.7661 21.3791 20.6094 21.6159 20.667 21.9094C20.6947 22.0416 20.5219 22.2057 20.3836 22.3307C20.2131 22.4832 20.1256 22.8595 20.28 23.0106C20.614 23.3331 20.614 23.3331 21.2016 23.1733C21.2407 23.1631 21.2914 23.1762 21.432 23.182C20.6371 23.5205 20.6094 24.0043 20.6302 24.5084C20.8514 24.5709 21.1071 24.565 21.3605 24.4764C21.4412 24.4474 21.5357 24.4343 21.6255 24.4125C21.637 24.5055 21.6946 24.6072 21.6509 24.69C21.5817 24.8324 21.4527 24.9646 21.3398 25.0968C21.2937 25.1505 21.2269 25.1956 21.1578 25.2537C21.2937 25.3205 21.3721 25.444 21.6025 25.3641C21.637 25.3525 21.7131 25.3786 21.7591 25.3989C22.0794 25.5384 22.2799 26.0062 22.107 26.227C22.084 26.2561 21.9965 26.2648 21.9112 26.243C21.8582 26.3258 21.7983 26.4057 21.7545 26.4885C21.6716 26.6483 21.4297 26.8125 21.7822 26.9665C21.8006 26.9752 21.7707 27.0304 21.7637 27.0638C21.7108 27.2803 21.8375 27.3704 22.1209 27.5026C22.2914 27.5825 22.531 27.6101 22.6324 27.6972C22.7545 27.8018 22.7314 27.9733 22.7867 28.1142C22.8328 28.2377 22.9135 28.3554 22.9572 28.4788C23.0056 28.6081 23.0586 28.7142 23.3074 28.7491C23.3789 28.7592 23.425 28.8682 23.4641 28.935C23.5494 29.0774 23.6208 29.2241 23.7014 29.3752C23.7014 29.0512 23.6945 28.7432 23.706 28.4353C23.7199 28.0532 23.6139 27.6856 23.4434 27.3195C23.365 27.1524 23.4065 26.9621 23.4157 26.7834C23.4203 26.6672 23.4664 26.5539 23.4987 26.4188C23.5425 26.4101 23.6208 26.3941 23.7014 26.3767C23.6738 26.2052 23.7245 26.0803 24.0793 26.1311C24.1023 26.1791 24.1277 26.2328 24.153 26.2866C24.1807 26.2851 24.206 26.2837 24.2337 26.2808C24.2337 25.8014 24.2337 25.3234 24.2337 24.844C24.2521 24.8425 24.2705 24.8425 24.289 24.8425C24.6046 25.1738 24.9203 25.5035 25.2613 25.8609C25.1691 25.3234 25.0792 24.8106 24.9848 24.273C25.1023 24.3079 25.1806 24.3312 25.3304 24.3747C25.1138 23.9055 24.9134 23.4755 24.7129 23.044C24.7382 23.0382 24.7636 23.0338 24.7889 23.028C24.8811 23.0745 24.971 23.1224 25.0608 23.1689C25.0723 23.1631 25.0862 23.1573 25.0977 23.1515C24.9479 22.9336 24.6922 22.7186 24.676 22.4963C24.653 22.1912 24.4134 21.9283 24.3949 21.6261C24.3834 21.4634 24.2429 21.2963 24.1162 21.1452C23.9157 20.9069 23.9641 20.766 24.3189 20.7195C24.3581 20.875 24.3973 21.0304 24.4387 21.1902C24.6783 21.1728 24.918 21.1554 25.1875 21.1365C25.0839 21.3544 25.0055 21.5186 24.9203 21.6958C25.0723 21.7728 25.0723 21.7728 24.9433 22.1505C25.0677 22.1563 25.1875 22.1636 25.259 22.1665C25.4225 22.2769 25.5585 22.367 25.7566 22.5006C25.8073 22.4803 25.9064 22.4353 26.0124 22.3975C26.4478 22.2421 26.2981 21.9108 26.5723 21.6566C26.6299 21.7394 26.6944 21.7961 26.7036 21.8571C26.7312 22.0212 26.7474 22.1883 26.7381 22.3539C26.7335 22.396 26.6206 22.4353 26.517 22.5006C26.517 22.4992 26.5792 22.5355 26.6206 22.5791C26.7197 22.6822 26.9501 22.7186 26.934 22.8914C26.9271 22.9583 27.1552 23.0643 27.3072 23.0963C27.3994 23.1152 27.563 23.0382 27.669 22.983C27.7796 22.9263 27.8556 22.845 27.9961 22.7375C28.1321 22.8842 28.2542 23.012 28.3809 23.1457C28.3993 23.1282 28.4362 23.0905 28.4708 23.0527C28.4984 23.0542 28.5261 23.0542 28.5514 23.0556C28.6459 23.4028 28.7403 23.75 28.8463 24.1321C28.9408 24.058 28.9915 24.0188 29.0422 23.981C29.0652 23.9825 29.0883 23.9868 29.109 23.9883C29.109 24.1946 29.109 24.4023 29.109 24.5825C29.1251 24.5723 29.1827 24.5287 29.2703 24.4677C29.2956 24.5258 29.314 24.5694 29.344 24.6391C29.5076 24.3355 29.655 24.0609 29.8186 23.7602C29.9154 23.8503 30.003 23.9316 30.0928 24.013C30.079 24.0232 30.0629 24.0333 30.0467 24.045C29.9868 24.0188 29.9269 23.9927 29.8647 23.9651C29.6896 24.5854 29.791 25.1403 30.7172 25.5152C30.7794 25.4571 30.8693 25.3757 31.0075 25.2449C31.0743 25.5529 31.1296 25.8101 31.1895 26.0963C31.3462 26.0164 31.4476 25.9655 31.549 25.9132C31.572 25.9205 31.595 25.9278 31.6158 25.935C31.5789 26.0077 31.5443 26.0803 31.5052 26.1544C31.5167 26.1515 31.5259 26.15 31.5374 26.1471C31.5259 26.2648 31.519 26.3839 31.5075 26.5176C31.8531 26.3665 31.8531 26.137 31.9268 25.9234C32.0005 25.704 32.1134 25.4905 32.2263 25.2377C32.2563 25.4353 32.3185 25.6023 32.3001 25.7665C32.2793 25.9495 32.4982 26.1413 32.2609 26.3171C32.2517 26.3229 32.2586 26.3462 32.2701 26.3505C32.6365 26.5365 32.3577 26.7863 32.4406 27.0028C32.6318 27.0667 32.8807 27.1089 32.7378 27.3093C32.7263 27.3282 32.7885 27.3936 32.8139 27.3922C32.9406 27.3907 33.0696 27.3747 33.1963 27.3587C33.2378 27.3544 33.277 27.337 33.3 27.3297C33.3461 27.4183 33.3876 27.5011 33.4383 27.5941C33.1157 27.6653 33.1756 27.8803 33.1272 27.998C33.3968 28.1752 33.6341 28.3321 33.8852 28.4963C34.0442 28.3495 34.2331 28.1738 34.4106 28.0081C34.7999 28.1403 34.535 28.3219 34.5096 28.4585C34.4912 28.5544 34.5188 28.5805 34.6041 28.6299C34.7631 28.7229 34.7585 28.7578 34.6502 28.8028C34.6893 28.8813 34.7262 28.951 34.7608 29.0193C34.9727 29.1529 34.9727 29.1529 35.2262 29.0614C35.3759 29.1573 35.5165 29.2503 35.6593 29.3432C35.8483 29.5234 35.452 29.58 35.4059 29.7369C35.3852 29.8023 35.3253 29.8662 35.3322 29.9287C35.3322 29.952 35.4842 29.9607 35.5441 29.9941C35.6017 30.026 35.6478 30.0783 35.6663 30.1263C35.7054 30.2294 35.7239 30.3355 35.8183 30.4401C35.9312 30.3137 36.0441 30.1873 36.1708 30.0449C36.24 30.1568 36.1109 30.3093 36.3897 30.3355C36.4105 30.3369 36.4358 30.3892 36.4312 30.4154C36.3989 30.5839 36.3529 30.751 36.3183 30.9195C36.2953 31.0357 36.2837 31.152 36.2676 31.2682C36.2999 31.2609 36.3321 31.2536 36.3667 31.2464C36.4473 31.2885 36.581 31.3234 36.6017 31.3757C36.6892 31.5907 36.6754 31.5936 36.9795 31.4904C37.0095 31.4803 37.0418 31.473 37.0878 31.4585C37.1339 31.5558 37.1731 31.6357 37.2353 31.7665C37.3321 31.6706 37.3828 31.6212 37.4496 31.5558C37.4726 31.5863 37.4887 31.6052 37.5049 31.6256C37.5486 31.6793 37.5947 31.7331 37.6385 31.7883C37.6892 31.7287 37.756 31.6735 37.7883 31.611C37.8389 31.5166 37.8643 31.4178 37.9657 31.3234C37.9657 31.5413 37.9841 31.7607 37.9611 31.9771C37.9196 32.3926 37.8228 32.8052 37.6823 33.2134C37.6431 33.3311 37.6431 33.4575 37.6546 33.5795C37.6592 33.6173 37.756 33.6609 37.8251 33.6841C38.0118 33.7452 38.1615 33.812 38.0325 33.9587C38.3297 34.0735 38.4449 33.995 38.5209 33.812C38.5762 33.6812 38.703 33.5636 38.8182 33.4096C38.8596 33.5418 38.8781 33.6478 38.9288 33.7481C39.0324 33.9471 39.1177 34.1563 39.279 34.3379C39.3873 34.4614 39.6107 34.5471 39.7835 34.6473C39.8112 34.6212 39.8688 34.5936 39.8665 34.5674C39.8481 34.3321 39.8365 34.0953 39.7905 33.8628C39.7283 33.536 39.6476 33.2105 39.5578 32.888C39.4748 32.5888 39.3665 32.2909 39.2813 31.9931C39.2582 31.9132 39.279 31.8304 39.3481 31.7461C39.4449 31.8696 39.5347 31.9975 39.643 32.1166C39.8642 32.3563 39.9379 32.3694 40.4909 32.2895C40.6959 31.8115 40.4402 31.38 40.1107 30.9645C39.8504 30.6362 39.5555 30.3195 39.2605 30.0013C39.1085 29.8386 38.9288 29.6861 38.756 29.5248C39.0854 29.5132 39.3665 29.5045 39.6453 29.4914C39.6937 29.49 39.7697 29.4798 39.7789 29.4638C39.8642 29.3026 40.1153 29.2924 40.2973 29.2198C40.3688 29.1907 40.4563 29.1093 40.4379 29.0701C40.2421 28.6575 39.9103 28.306 39.3135 28.0648C39.1039 27.9791 38.9656 27.828 38.7813 27.7147C38.7099 27.6725 38.6016 27.6551 38.5117 27.6261C38.4703 27.6144 38.3942 27.6072 38.3919 27.5941C38.3597 27.3965 38.0417 27.3965 37.8735 27.2948C37.6523 27.1597 37.4012 27.0435 37.1708 26.9127C37.1178 26.8837 37.1063 26.827 37.0671 26.7718C37.1385 26.7457 37.2215 26.7326 37.2537 26.6992C37.3459 26.6062 37.3989 26.6091 37.5394 26.6803C37.6362 26.7297 37.832 26.798 37.9818 26.6571C37.8942 26.6207 37.8113 26.5873 37.7307 26.5539C37.7353 26.5394 37.7399 26.5263 37.7445 26.5103C37.8689 26.5147 37.9933 26.519 38.1339 26.5234C38.1108 26.4929 38.0832 26.4537 38.0417 26.3985C38.1615 26.3883 38.2744 26.3796 38.4242 26.3694C38.5532 26.1558 38.8573 26.2633 39.0578 26.2851C38.9656 26.1849 38.8642 26.0745 38.7606 25.9655C38.7536 25.9568 38.726 25.9554 38.7076 25.9539C38.3804 25.9263 38.2905 25.736 38.0947 25.6154C37.8044 25.4367 37.4726 25.2842 37.15 25.1287C37.1063 25.1069 37.0026 25.1331 36.9243 25.1374C36.8966 25.0822 36.8597 25.0081 36.8321 24.9529C36.9266 24.8759 37.0325 24.8077 37.104 24.7263C37.1339 24.69 37.1155 24.6159 37.0763 24.5796C37.0026 24.5157 36.8897 24.4677 36.8067 24.4067C36.786 24.3907 36.7975 24.3312 36.8183 24.3253C36.8782 24.3065 36.9657 24.2876 37.0187 24.3021C37.2053 24.3558 37.5095 24.2919 37.5118 24.5186C37.8643 24.3544 37.832 24.2353 37.68 24.0464C37.498 23.8183 37.1892 23.8125 36.8897 23.7515C36.7215 23.7181 36.5487 23.6687 36.4105 23.6019C36.0072 23.4086 35.5395 23.3854 35.0672 23.3607C35.0073 23.3578 34.9497 23.2881 34.9036 23.2459C34.7838 23.137 34.7308 22.967 34.4774 23.0425C34.3806 22.8958 34.2884 22.7563 34.1963 22.6183C34.2078 22.614 34.2193 22.6096 34.2308 22.6067C34.2101 22.5704 34.1894 22.5355 34.1548 22.4789C34.4474 22.489 34.7769 22.566 34.8967 22.3118C35.0188 22.3597 35.1156 22.3975 35.2124 22.4367C35.2907 22.3554 35.369 22.2784 35.4266 22.2203C35.2193 22.12 35.0349 22.0314 34.9036 21.9675C34.7976 22.0038 34.7331 22.0372 34.6617 22.0459C34.5626 22.0561 34.4612 22.0474 34.3599 22.0474C34.346 22.0125 34.323 21.9806 34.3253 21.9486C34.3276 21.9152 34.353 21.8818 34.3483 21.8876C34.0442 21.783 33.7677 21.6842 33.4889 21.5883C33.1894 21.4852 32.9014 21.3602 32.5812 21.2919C32.4268 21.26 32.2148 21.3341 32.0282 21.3573C31.9199 21.3704 31.8093 21.3762 31.6803 21.3471C31.8485 21.2847 32.019 21.2222 32.1872 21.1597C31.7609 21.1568 31.4199 21.0435 31.2448 20.7951C31.4775 20.7849 31.6803 20.7777 31.9176 20.7675C31.8485 20.6948 31.7909 20.6309 31.731 20.5699C31.8208 20.5234 31.9545 20.4639 32.072 20.3927C32.125 20.3593 32.178 20.3491 32.2379 20.3854C32.307 20.429 32.3899 20.4653 32.4683 20.5045C32.5028 20.4885 32.5374 20.4726 32.5696 20.4566C32.2448 20.105 31.9199 19.7549 31.595 19.4033C31.6135 19.3873 31.6319 19.3714 31.648 19.3554C31.7448 19.3902 31.8876 19.4106 31.9291 19.4629C32.0489 19.6125 32.2379 19.6154 32.4521 19.6096C32.5259 19.6067 32.6157 19.6227 32.6687 19.6517C33.118 19.8929 33.5235 20.1718 34.1202 20.2793C34.1617 20.2881 34.2009 20.3171 34.2262 20.3433C34.4036 20.5321 34.7354 20.4944 35.0488 20.5786C34.899 20.3839 34.8207 20.1994 34.641 20.0701C34.4221 19.9118 34.4359 19.7854 34.6893 19.5936C34.5211 19.6372 34.4451 19.6576 34.2931 19.6968C34.3345 19.5748 34.3645 19.489 34.3875 19.4208C34.1133 19.1186 33.8369 18.8164 33.5604 18.5128C33.5719 18.5026 33.5834 18.491 33.5926 18.4808C33.9498 18.6421 34.3391 18.783 34.6571 18.9718C35.0603 19.213 35.4128 19.4905 35.7745 19.7578C36.0257 19.9438 36.2469 20.1442 36.498 20.3287C36.5625 20.3752 36.7031 20.4188 36.7883 20.4086C37.0003 20.3825 37.1132 20.4885 37.1178 20.551C37.127 20.7399 37.3666 20.7515 37.5325 20.8285C37.6316 20.8735 37.7007 20.952 37.7606 21.0232C37.7952 21.0639 37.7906 21.1205 37.8366 21.1612C37.938 21.0275 37.7998 20.8953 37.991 20.7573C38.0924 20.6847 37.9818 20.4885 37.9542 20.3505C37.9242 20.1893 37.8781 20.0309 37.8389 19.8711C37.8712 19.858 37.9012 19.845 37.9334 19.8319C38.12 19.9568 38.2882 20.0963 38.4956 20.2053C38.7007 20.3157 38.9334 20.413 39.1776 20.4842C39.3297 20.5278 39.6683 20.7704 39.6384 20.8866C39.9725 20.8605 40.1568 20.9534 40.219 21.1641C40.2328 21.2149 40.3204 21.26 40.3849 21.3021C40.484 21.3675 40.9125 21.4532 41.0231 21.4619C41.2512 21.4779 41.2973 21.443 41.1729 21.3195C41.1475 21.2934 41.1637 21.2513 41.1591 21.1961C41.2743 21.1961 41.3895 21.1961 41.5208 21.1961C41.5208 21.1917 41.5139 21.1568 41.5139 21.1438C41.6245 21.1278 41.7212 21.1118 41.765 21.1045C42.0668 21.2629 42.3502 21.4125 42.6359 21.5622C42.9147 21.4169 43.0806 21.7931 43.3686 21.645C43.6013 21.7772 44.023 21.8454 43.9423 22.0677C44.228 22.2362 44.4584 22.3714 44.645 22.4818C44.6727 22.3975 44.7649 22.2798 44.7349 22.1752C44.6819 21.9878 44.5368 21.8106 44.4607 21.6246C44.3824 21.4285 44.1128 21.2251 44.5414 20.9869C44.6013 21.045 44.6474 21.1278 44.7395 21.1641C44.9307 21.2396 45.1496 21.289 45.3547 21.3544C45.433 21.3791 45.5482 21.4096 45.5667 21.4503C45.6796 21.7045 45.9261 21.95 46.2556 22.027C46.6795 22.1258 46.8362 22.3554 47.1403 22.5036C47.4629 22.6619 47.7463 22.8682 48.2002 22.8726C48.1126 22.6881 48.0204 22.4963 47.9168 22.2755C48.2854 22.3132 48.6218 22.3467 48.9513 22.3815C48.7485 22.2377 48.5527 22.0997 48.3591 21.9631C48.3453 21.9718 48.3315 21.9791 48.3177 21.9878C48.3568 22.0401 48.4006 22.0953 48.4398 22.1476C48.4213 22.1578 48.4006 22.1665 48.3822 22.1767C48.2485 22.0837 48.1126 21.9922 47.979 21.8992C47.9951 21.8876 48.0112 21.8774 48.0297 21.8658C48.0896 21.8919 48.1518 21.9195 48.214 21.9457C48.3707 21.7859 48.4283 21.783 48.6057 21.9399C48.7923 22.104 49.0826 22.0793 49.3384 22.1171C49.366 22.12 49.4167 22.0517 49.4536 22.0227C49.7346 22.1505 50.0157 22.2769 50.2945 22.4048C50.3199 22.3815 50.3429 22.3612 50.3683 22.3394C49.9674 22.1345 49.5688 21.9297 49.1425 21.7118C49.3107 21.6813 49.525 21.645 49.7416 21.6072C49.8314 21.6537 49.9213 21.7031 50.0134 21.751C50.0296 21.7394 50.048 21.7278 50.0641 21.7161C49.3568 21.1321 48.5365 20.6222 47.5182 20.2256C47.5504 20.1617 47.5804 20.1036 47.6172 20.0353C47.7647 20.1806 48.3891 20.3215 48.6771 20.2605C48.8591 20.2198 49.0342 20.1384 49.0388 20.0527C48.9006 19.951 48.8315 19.8842 48.7347 19.8348C48.502 19.7142 48.2739 19.5849 48.0158 19.4905C47.6103 19.3409 47.1864 19.2087 46.7601 19.0823C46.5413 19.0154 46.297 18.9806 46.0666 18.9283C45.963 18.9036 45.8662 18.8629 45.7625 18.8455C45.6542 18.828 45.5367 18.8309 45.4238 18.8251C45.3547 18.8208 45.2856 18.8193 45.2164 18.8149C45.2257 18.7815 45.2326 18.7467 45.2372 18.7234C45.1381 18.7031 45.0413 18.6755 44.9423 18.661C44.7695 18.6363 44.6059 18.597 44.4492 18.7162C44.3478 18.7946 44.1658 18.8338 43.9999 18.8992C43.9654 18.8193 43.9377 18.7583 43.9032 18.6798C43.9884 18.6755 44.0437 18.6697 44.099 18.6711C44.2488 18.674 44.3478 18.6929 44.4976 18.5854C44.6704 18.4619 45.0229 18.4372 45.2971 18.3704C45.5068 18.321 45.7141 18.2702 45.9215 18.2208L45.9307 18.2251Z" fill="#02324A"/>
</g>
</svg>
